# xmcd
#
# Track frame offsets: 
#        150
#        14755
#        35594
#        49437
#        81550
#        101482
#        127684
#        146206
#        177621
#        196599
#        222311
#        240106
#
# Disc length: 3373 seconds
#
# Revision: 0
# Processed by: cddbd v1.5.2PL0 Copyright (c) Steve Scherf et al.
# Submitted via: ExactAudioCopy v1.0b4
#
DISCID=ab0d2b0c
DTITLE=Little Smokey Smothers and Elvin Bishop - Chicago Blues Buddies
DYEAR=2009
DGENRE=Blues Rock
TTITLE0=Remembering
TTITLE1=Talkin' Blues
TTITLE2=Smokey Shuffle
TTITLE3=Crackhead Woman
TTITLE4=Mother-In-Law Blues
TTITLE5=You're Gonna Miss Me
TTITLE6=You Don't Love Me
TTITLE7=Interview
TTITLE8=Roll Your Moneymaker
TTITLE9=Little Red Rooster
TTITLE10=Hello Baby
TTITLE11=Bye Bye Baby
EXTD=
EXTT0=
EXTT1=
EXTT2=
EXTT3=
EXTT4=
EXTT5=
EXTT6=
EXTT7=
EXTT8=
EXTT9=
EXTT10=
EXTT11=
PLAYORDER=
